#!OML:ASF H:\Martial Arts Walks\Project 1\Capture day 1\Session 1\male.ASF
:FULLY-SPECIFIED
:DEGREES
1275
root -3.25861 14.2733 25.2719 11.7608 22.2813 2.43225
lowerback 16.6497 -1.05735 -3.52336
upperback 2.74434 -1.86055 1.61597
thorax -6.2197 -0.803872 4.12583
lowerneck 1.23259 -9.70544 -10.3457
upperneck 11.2249 -13.5369 7.89302
head 4.40691 -6.76809 3.47684
rclavicle -4.47266e-014 2.70347e-014
rhumerus -15.2598 12.3694 -74.5792
rradius 40.2295
rwrist 1.30893
rhand -16.5577 -39.7212
rfingers 7.12502
rthumb 9.66214 -69.4796
lclavicle -4.47266e-014 2.70347e-014
lhumerus -19.1872 -15.2944 87.1467
lradius 42.7026
lwrist -6.71615
lhand -27.5491 22.7781
lfingers 7.12502
lthumb -0.950398 52.7557
rfemur -63.4464 -7.46255 12.3544
rtibia 70.3647
rfoot -12.4163 -3.19764
rtoes -8.37639
lfemur 5.94728 -1.88232 -8.33885
ltibia 30.9562
lfoot -27.6399 31.4764
ltoes -23.0737
1276
root -3.31638 14.3147 25.3173 12.0648 23.3868 2.44039
lowerback 16.7707 -1.11412 -3.2112
upperback 2.819 -1.87754 1.64231
thorax -6.2135 -0.818249 3.98211
lowerneck 1.06341 -9.3618 -10.0698
upperneck 11.2666 -13.0216 7.51657
head 4.3561 -6.51353 3.34968
rclavicle -3.67752e-014 3.97569e-015
rhumerus -14.9414 11.7509 -74.9463
rradius 39.5029
rwrist 1.25379
rhand -17.4743 -39.0264
rfingers 7.12502
rthumb 8.77763 -68.8238
lclavicle -3.67752e-014 3.97569e-015
lhumerus -18.8769 -15.1589 87.2209
lradius 42.2508
lwrist -7.00032
lhand -27.8786 23.0376
lfingers 7.12502
lthumb -1.2687 53.0136
rfemur -63.0798 -7.09706 12.134
rtibia 70.1876
rfoot -12.3065 -4.69979
rtoes -9.13562
lfemur 5.34328 -2.40791 -7.75035
ltibia 30.7268
lfoot -27.021 30.8936
ltoes -23.036
1277
root -3.37879 14.3639 25.3701 12.4661 24.5355 2.63237
lowerback 16.878 -1.14143 -3.11708
upperback 2.86959 -1.89558 1.64695
thorax -6.21898 -0.828166 3.93988
lowerneck 0.86541 -9.03088 -9.78032
upperneck 11.3593 -12.5233 7.12495
head 4.32884 -6.2668 3.21104
rclavicle -3.93594e-014 2.06736e-014
rhumerus -14.6247 11.3029 -75.2677
rradius 38.868
rwrist 0.791706
rhand -17.946 -39.3845
rfingers 7.12502
rthumb 8.32241 -69.2006
lclavicle -3.93594e-014 2.06736e-014
lhumerus -18.5694 -14.9844 87.3422
lradius 41.771
lwrist -7.3383
lhand -28.0696 22.9812
lfingers 7.12502
lthumb -1.45309 52.956
rfemur -62.6868 -6.64873 11.7103
rtibia 69.9846
rfoot -12.2767 -6.5541
rtoes -10.2916
lfemur 4.65594 -3.00904 -7.32098
ltibia 30.5259
lfoot -26.3023 30.3253
ltoes -23.1098
1278
root -3.44235 14.4065 25.4225 12.8685 25.6469 2.6965
lowerback 16.9249 -1.15725 -2.91588
upperback 2.89833 -1.87689 1.67258
thorax -6.22117 -0.822122 3.84956
lowerneck 0.352339 -8.83125 -9.55421
upperneck 11.6885 -12.1883 6.74549
head 4.44795 -6.09557 3.05399
rclavicle -3.08116e-014 -1.47101e-014
rhumerus -14.3521 10.7028 -75.6628
rradius 38.1765
rwrist 0.493892
rhand -18.3947 -39.6618
rfingers 7.12502
rthumb 7.88937 -69.4946
lclavicle -3.08116e-014 -1.47101e-014
lhumerus -18.2866 -14.8652 87.4596
lradius 41.2983
lwrist -7.56447
lhand -28.0777 23.255
lfingers 7.12502
lthumb -1.46092 53.2298
rfemur -62.403 -6.14745 11.4598
rtibia 69.7834
rfoot -12.2159 -7.90257
rtoes -11.1336
lfemur 3.855 -3.50197 -6.7393
ltibia 30.5044
lfoot -25.7925 29.5867
ltoes -22.7935
1279
root -3.5094 14.4539 25.4781 13.2271 26.9227 2.7522
lowerback 16.9928 -1.22046 -2.67309
upperback 2.94035 -1.91242 1.7002
thorax -6.21732 -0.843293 3.74969
lowerneck 0.275264 -8.49832 -9.2265
upperneck 11.7418 -11.6956 6.33459
head 4.39196 -5.85463 2.90892
rclavicle -3.83654e-014 1.23246e-014
rhumerus -14.1212 10.0162 -76.1065
rradius 37.4977
rwrist 0.282359
rhand -18.5219 -39.9428
rfingers 7.12502
rthumb 7.76658 -69.7802
lclavicle -3.83654e-014 1.23246e-014
lhumerus -17.9758 -14.6911 87.5457
lradius 40.7535
lwrist -7.81853
lhand -27.9874 23.7153
lfingers 7.12502
lthumb -1.37374 53.6906
rfemur -62.0312 -5.73514 11.294
rtibia 69.5325
rfoot -12.6165 -8.87369
rtoes -10.1207
lfemur 2.96688 -4.02759 -6.07222
ltibia 30.5424
lfoot -25.0136 28.9087
ltoes -22.6546
